<?xml version="1.0" encoding="UTF-8" standalone="no"?>
<!DOCTYPE svg PUBLIC "-//W3C//DTD SVG 1.1//EN"
 "http://www.w3.org/Graphics/SVG/1.1/DTD/svg11.dtd">
<!-- Generated by graphviz version 12.1.1 (20240910.0053)
 -->
<!-- Title: INFRA Pages: 1 -->
<svg width="716pt" height="296pt"
 viewBox="0.00 0.00 716.03 296.00" xmlns="http://www.w3.org/2000/svg" xmlns:xlink="http://www.w3.org/1999/xlink">
<g id="graph0" class="graph" transform="scale(1 1) rotate(0) translate(4 292)">
<title>INFRA</title>
<polygon fill="white" stroke="none" points="-4,4 -4,-292 712.03,-292 712.03,4 -4,4"/>
<!-- Network -->
<g id="node1" class="node">
<title>Network</title>
<path fill="#e6e6e6" stroke="black" stroke-width="2" d="M348.24,-72C348.24,-72 277.66,-72 277.66,-72 271.66,-72 265.66,-66 265.66,-60 265.66,-60 265.66,-12 265.66,-12 265.66,-6 271.66,0 277.66,0 277.66,0 348.24,0 348.24,0 354.24,0 360.24,-6 360.24,-12 360.24,-12 360.24,-60 360.24,-60 360.24,-66 354.24,-72 348.24,-72"/>
<text text-anchor="middle" x="312.95" y="-40.2" font-family="Arial" font-size="14.00">Network</text>
<text text-anchor="middle" x="312.95" y="-23.4" font-family="Arial" font-size="14.00">(HobbyVPC)</text>
</g>
<!-- Cluster -->
<g id="node2" class="node">
<title>Cluster</title>
<path fill="#b7e0ff" stroke="black" stroke-width="2" d="M133.9,-180C133.9,-180 12,-180 12,-180 6,-180 0,-174 0,-168 0,-168 0,-120 0,-120 0,-114 6,-108 12,-108 12,-108 133.9,-108 133.9,-108 139.9,-108 145.9,-114 145.9,-120 145.9,-120 145.9,-168 145.9,-168 145.9,-174 139.9,-180 133.9,-180"/>
<text text-anchor="middle" x="72.95" y="-148.2" font-family="Arial" font-size="14.00">Cluster</text>
<text text-anchor="middle" x="72.95" y="-131.4" font-family="Arial" font-size="14.00">(AWS::ECS::Cluster)</text>
</g>
<!-- Cluster&#45;&gt;Network -->
<g id="edge1" class="edge">
<title>Cluster&#45;&gt;Network</title>
<path fill="none" stroke="black" d="M146.26,-110.62C181.22,-95.18 222.43,-76.98 255.13,-62.54"/>
<polygon fill="black" stroke="black" points="256.31,-65.84 264.05,-58.6 253.49,-59.44 256.31,-65.84"/>
</g>
<!-- GooglePlacesAPIKey -->
<g id="node3" class="node">
<title>GooglePlacesAPIKey</title>
<path fill="#fff5cd" stroke="black" stroke-width="2" d="M379.93,-173.45C379.93,-177.07 331.53,-180 271.95,-180 212.37,-180 163.98,-177.07 163.98,-173.45 163.98,-173.45 163.98,-114.55 163.98,-114.55 163.98,-110.93 212.37,-108 271.95,-108 331.53,-108 379.93,-110.93 379.93,-114.55 379.93,-114.55 379.93,-173.45 379.93,-173.45"/>
<path fill="none" stroke="black" stroke-width="2" d="M379.93,-173.45C379.93,-169.84 331.53,-166.91 271.95,-166.91 212.37,-166.91 163.98,-169.84 163.98,-173.45"/>
<text text-anchor="middle" x="271.95" y="-148.2" font-family="Arial" font-size="14.00">GooglePlacesAPIKey</text>
<text text-anchor="middle" x="271.95" y="-131.4" font-family="Arial" font-size="14.00">(AWS::SecretsManager::Secret)</text>
</g>
<!-- Laravel -->
<g id="node4" class="node">
<title>Laravel</title>
<path fill="#b7e0ff" stroke="black" stroke-width="2" d="M141.07,-288C141.07,-288 16.83,-288 16.83,-288 10.83,-288 4.83,-282 4.83,-276 4.83,-276 4.83,-228 4.83,-228 4.83,-222 10.83,-216 16.83,-216 16.83,-216 141.07,-216 141.07,-216 147.07,-216 153.07,-222 153.07,-228 153.07,-228 153.07,-276 153.07,-276 153.07,-282 147.07,-288 141.07,-288"/>
<text text-anchor="middle" x="78.95" y="-256.2" font-family="Arial" font-size="14.00">Laravel</text>
<text text-anchor="middle" x="78.95" y="-239.4" font-family="Arial" font-size="14.00">(AWS::ECS::Service)</text>
</g>
<!-- Laravel&#45;&gt;Cluster -->
<g id="edge2" class="edge">
<title>Laravel&#45;&gt;Cluster</title>
<path fill="none" stroke="black" d="M76.95,-215.7C76.51,-207.93 76.04,-199.57 75.58,-191.43"/>
<polygon fill="black" stroke="black" points="79.09,-191.44 75.03,-181.65 72.1,-191.84 79.09,-191.44"/>
</g>
<!-- Laravel&#45;&gt;GooglePlacesAPIKey -->
<g id="edge3" class="edge">
<title>Laravel&#45;&gt;GooglePlacesAPIKey</title>
<path fill="none" stroke="black" d="M143.49,-215.56C161.05,-205.91 180.21,-195.38 198.25,-185.48"/>
<polygon fill="black" stroke="black" points="199.73,-188.66 206.81,-180.78 196.36,-182.52 199.73,-188.66"/>
</g>
<!-- LaravelTaskDefinition -->
<g id="node5" class="node">
<title>LaravelTaskDefinition</title>
<path fill="#b7e0ff" stroke="black" stroke-width="2" d="M355.08,-288C355.08,-288 188.82,-288 188.82,-288 182.82,-288 176.82,-282 176.82,-276 176.82,-276 176.82,-228 176.82,-228 176.82,-222 182.82,-216 188.82,-216 188.82,-216 355.08,-216 355.08,-216 361.08,-216 367.08,-222 367.08,-228 367.08,-228 367.08,-276 367.08,-276 367.08,-282 361.08,-288 355.08,-288"/>
<text text-anchor="middle" x="271.95" y="-256.2" font-family="Arial" font-size="14.00">LaravelTaskDefinition</text>
<text text-anchor="middle" x="271.95" y="-239.4" font-family="Arial" font-size="14.00">(AWS::ECS::TaskDefinition)</text>
</g>
<!-- LaravelTaskDefinition&#45;&gt;GooglePlacesAPIKey -->
<g id="edge4" class="edge">
<title>LaravelTaskDefinition&#45;&gt;GooglePlacesAPIKey</title>
<path fill="none" stroke="black" d="M271.95,-215.7C271.95,-207.93 271.95,-199.57 271.95,-191.43"/>
<polygon fill="black" stroke="black" points="275.45,-191.66 271.95,-181.66 268.45,-191.66 275.45,-191.66"/>
</g>
<!-- LaravelLoadBalancer -->
<g id="node6" class="node">
<title>LaravelLoadBalancer</title>
<path fill="#e78f81" stroke="black" stroke-width="2" d="M696.03,-180C696.03,-180 409.87,-180 409.87,-180 403.87,-180 397.87,-174 397.87,-168 397.87,-168 397.87,-120 397.87,-120 397.87,-114 403.87,-108 409.87,-108 409.87,-108 696.03,-108 696.03,-108 702.03,-108 708.03,-114 708.03,-120 708.03,-120 708.03,-168 708.03,-168 708.03,-174 702.03,-180 696.03,-180"/>
<text text-anchor="middle" x="552.95" y="-148.2" font-family="Arial" font-size="14.00">LaravelLoadBalancer</text>
<text text-anchor="middle" x="552.95" y="-131.4" font-family="Arial" font-size="14.00">(AWS::ElasticLoadBalancingV2::LoadBalancer)</text>
</g>
<!-- LaravelLoadBalancer&#45;&gt;Network -->
<g id="edge5" class="edge">
<title>LaravelLoadBalancer&#45;&gt;Network</title>
<path fill="none" stroke="black" d="M472.7,-107.56C439.42,-92.86 401.55,-76.13 371.03,-62.65"/>
<polygon fill="black" stroke="black" points="372.51,-59.48 361.95,-58.64 369.68,-65.88 372.51,-59.48"/>
</g>
<!-- LaravelLogGroup -->
<g id="node7" class="node">
<title>LaravelLogGroup</title>
<path fill="#e6e6e6" stroke="black" stroke-width="2" d="M538.65,-288C538.65,-288 397.25,-288 397.25,-288 391.25,-288 385.25,-282 385.25,-276 385.25,-276 385.25,-228 385.25,-228 385.25,-222 391.25,-216 397.25,-216 397.25,-216 538.65,-216 538.65,-216 544.65,-216 550.65,-222 550.65,-228 550.65,-228 550.65,-276 550.65,-276 550.65,-282 544.65,-288 538.65,-288"/>
<text text-anchor="middle" x="467.95" y="-256.2" font-family="Arial" font-size="14.00">LaravelLogGroup</text>
<text text-anchor="middle" x="467.95" y="-239.4" font-family="Arial" font-size="14.00">(AWS::Logs::LogGroup)</text>
</g>
</g>
</svg>
